<?xml version="1.0" encoding="UTF-8" standalone="no"?>
<svg
   xmlns:dc="http://purl.org/dc/elements/1.1/"
   xmlns:cc="http://creativecommons.org/ns#"
   xmlns:rdf="http://www.w3.org/1999/02/22-rdf-syntax-ns#"
   xmlns:svg="http://www.w3.org/2000/svg"
   xmlns="http://www.w3.org/2000/svg"
   xmlns:sodipodi="http://sodipodi.sourceforge.net/DTD/sodipodi-0.dtd"
   xmlns:inkscape="http://www.inkscape.org/namespaces/inkscape"
   version="1.1"
   viewBox="0.0 0.0 1069.0 694.0"
   fill="none"
   stroke="none"
   stroke-linecap="square"
   stroke-miterlimit="10"
   id="svg2"
   inkscape:version="0.91 r13725"
   sodipodi:docname="multitasks.svg">
  <metadata
     id="metadata121">
    <rdf:RDF>
      <cc:Work
         rdf:about="">
        <dc:format>image/svg+xml</dc:format>
        <dc:type
           rdf:resource="http://purl.org/dc/dcmitype/StillImage" />
        <dc:title></dc:title>
      </cc:Work>
    </rdf:RDF>
  </metadata>
  <defs
     id="defs119" />
  <sodipodi:namedview
     pagecolor="#ffffff"
     bordercolor="#666666"
     borderopacity="1"
     objecttolerance="10"
     gridtolerance="10"
     guidetolerance="10"
     inkscape:pageopacity="0"
     inkscape:pageshadow="2"
     inkscape:window-width="1920"
     inkscape:window-height="1056"
     id="namedview117"
     showgrid="false"
     showguides="false"
     inkscape:zoom="1.1150608"
     inkscape:cx="455.47979"
     inkscape:cy="338.45205"
     inkscape:window-x="0"
     inkscape:window-y="24"
     inkscape:window-maximized="1"
     inkscape:current-layer="g7" />
  <clipPath
     id="p.0">
    <path
       d="m0 0l1069.0 0l0 694.0l-1069.0 0l0 -694.0z"
       clip-rule="nonzero"
       id="path5" />
  </clipPath>
  <g
     clip-path="url(#p.0)"
     id="g7">
    <path
       d="m-0.8897638 0l1070.0157 0l0 694.04724l-1070.0157 0z"
       id="path9"
       fill-rule="nonzero"
       fill="#000000" />
    <path
       stroke="#000000"
       stroke-width="2.0"
       stroke-linejoin="round"
       stroke-linecap="butt"
       d="m-0.8897638 0l1070.0157 0l0 694.04724l-1070.0157 0z"
       fill-rule="nonzero"
       id="path11" />
    <path
       d="m 93.992099,76.703415 0,608.881905"
       id="path53"
       inkscape:connector-curvature="0"
       style="fill-rule:nonzero;stroke:#ffffff;stroke-width:8;stroke-linecap:butt;stroke-linejoin:round" />
    <path
       d="m 895.55865,74.012979 0,609.732241"
       id="path55"
       inkscape:connector-curvature="0"
       style="fill-rule:nonzero;stroke:#ffffff;stroke-width:8;stroke-linecap:butt;stroke-linejoin:round" />
    <path
       d="M 98.639177,94.210647 834.57975,130.58069"
       id="path61"
       inkscape:connector-curvature="0"
       style="fill-rule:evenodd;stroke:#ffffff;stroke-width:9.11304569;stroke-linecap:butt;stroke-linejoin:round" />
    <path
       fill="#ffffff"
       stroke="#ffffff"
       stroke-width="8.0"
       stroke-linecap="butt"
       d="m410.0619 727.14813l38.025513 -6.8339844l-33.522064 -19.207214z"
       fill-rule="evenodd"
       id="path67" />
    <path
       d="m 894.66184,132.50681 0,0 c 37.02481,0 67.03937,30.01455 67.03937,67.03937 0,18.51242 -7.50366,35.27226 -19.63537,47.40397 -6.06586,6.06589 -13.28876,10.97473 -21.30927,14.3671 -2.00509,0.84811 -4.06006,1.60141 -6.15927,2.25433 l -0.36523,0.11112"
       id="path69"
       inkscape:connector-curvature="0"
       style="fill-rule:evenodd;stroke:#ffffff;stroke-width:8;stroke-linecap:butt;stroke-linejoin:round" />
    <path
       d="m 910.64481,264.57951 3.89975,-5.25812 -11.9013,6.44501 13.25967,2.71286 z"
       id="path71"
       inkscape:connector-curvature="0"
       style="fill:#ffffff;fill-rule:evenodd;stroke:#ffffff;stroke-width:8;stroke-linecap:butt" />
    <path
       d="m 894.66184,276.19074 0,0 c 37.02481,0 67.03937,30.01455 67.03937,67.0394 0,18.51239 -7.50366,35.27221 -19.63537,47.40399 -6.06586,6.06585 -13.28876,10.97467 -21.30927,14.36706 -2.00509,0.84808 -4.06006,1.60144 -6.15927,2.25433 l -0.36523,0.11109"
       id="path73"
       inkscape:connector-curvature="0"
       style="fill-rule:evenodd;stroke:#ffffff;stroke-width:8;stroke-linecap:butt;stroke-linejoin:round" />
    <path
       d="m 910.64481,406.46988 3.89975,-5.25812 -11.9013,6.44494 13.25967,2.7129 z"
       id="path75"
       inkscape:connector-curvature="0"
       style="fill:#ffffff;fill-rule:evenodd;stroke:#ffffff;stroke-width:8;stroke-linecap:butt" />
    <path
       d="m 869.56255,26.71446 10.5625,0 q 3.57813,0 5.45313,0.546875 2.51562,0.75 4.3125,2.640625 1.79687,1.890625 2.73437,4.640625 0.9375,2.75 0.9375,6.765625 0,3.53125 -0.875,6.09375 -1.07812,3.125 -3.0625,5.0625 -1.5,1.46875 -4.0625,2.28125 -1.92187,0.609375 -5.125,0.609375 l -10.875,0 0,-28.640625 z m 5.78125,4.84375 0,18.96875 4.3125,0 q 2.42188,0 3.5,-0.265625 1.40625,-0.359375 2.32813,-1.1875 0.9375,-0.84375 1.51562,-2.765625 0.59375,-1.9375 0.59375,-5.25 0,-3.328125 -0.59375,-5.09375 -0.57812,-1.78125 -1.64062,-2.78125 -1.04688,-1 -2.67188,-1.34375 -1.20312,-0.28125 -4.75,-0.28125 l -2.59375,0 z m 23.15235,-4.84375 11.4375,0 q 3.40625,0 5.0625,0.296875 1.67187,0.28125 2.98437,1.1875 1.32813,0.890625 2.20313,2.390625 0.89062,1.484375 0.89062,3.34375 0,2 -1.09375,3.6875 -1.07812,1.671875 -2.9375,2.515625 2.625,0.765625 4.03125,2.609375 1.40625,1.828125 1.40625,4.3125 0,1.953125 -0.92187,3.796875 -0.90625,1.84375 -2.48438,2.953125 -1.5625,1.09375 -3.85937,1.34375 -1.45313,0.15625 -6.98438,0.203125 l -9.73437,0 0,-28.640625 z m 5.78125,4.765625 0,6.625 3.78125,0 q 3.375,0 4.20312,-0.09375 1.48438,-0.171875 2.32813,-1.015625 0.85937,-0.859375 0.85937,-2.25 0,-1.328125 -0.73437,-2.15625 -0.73438,-0.828125 -2.1875,-1 -0.85938,-0.109375 -4.9375,-0.109375 l -3.3125,0 z m 0,11.390625 0,7.65625 5.34375,0 q 3.125,0 3.96875,-0.171875 1.28125,-0.234375 2.09375,-1.140625 0.8125,-0.90625 0.8125,-2.4375 0,-1.28125 -0.625,-2.171875 -0.625,-0.90625 -1.8125,-1.3125 -1.17188,-0.421875 -5.125,-0.421875 l -4.65625,0 z"
       id="path87"
       inkscape:connector-curvature="0"
       style="fill:#ffffff;fill-rule:nonzero" />
    <path
       inkscape:connector-curvature="0"
       style="fill-rule:nonzero;stroke:#ffffff;stroke-width:8;stroke-linecap:butt;stroke-linejoin:round"
       d="m 490.85315,74.275345 0,608.881905"
       id="path53-6" />
    <path
       inkscape:connector-curvature="0"
       style="fill-rule:evenodd;stroke:#ffffff;stroke-width:7.78052187;stroke-linecap:butt;stroke-linejoin:round"
       d="m 487.66854,179.71149 349.83212,12.07348"
       id="path61-2" />
    <path
       inkscape:connector-curvature="0"
       style="fill:#ffffff;fill-rule:evenodd;stroke:#ffffff;stroke-width:8;stroke-linecap:butt"
       d="m 840.17335,147.05238 36.29462,-13.24174 -36.31492,-13.18597 z"
       id="path63-6" />
    <path
       inkscape:connector-curvature="0"
       style="fill:#ffffff;fill-rule:evenodd;stroke:#ffffff;stroke-width:8;stroke-linecap:butt"
       d="m 838.31138,724.72007 38.02551,-6.83398 -33.52206,-19.20722 z"
       id="path67-8" />
    <path
       inkscape:connector-curvature="0"
       style="fill-rule:evenodd;stroke:#ffffff;stroke-width:8;stroke-linecap:butt;stroke-linejoin:round"
       d="M 883.96634,411.15341 536.07337,439.94288"
       id="path77-7" />
    <path
       inkscape:connector-curvature="0"
       style="fill:#ffffff;fill-rule:evenodd;stroke:#ffffff;stroke-width:8;stroke-linecap:butt"
       d="m 536.74637,425.60247 -34.5141,17.36143 37.59905,8.88562 z"
       id="path79-9" />
    <flowRoot
       xml:space="preserve"
       id="flowRoot3566"
       style="fill:black;stroke:none;stroke-opacity:1;stroke-width:1px;stroke-linejoin:miter;stroke-linecap:butt;fill-opacity:1;font-family:sans-serif;font-style:normal;font-weight:normal;font-size:40px;line-height:125%;letter-spacing:0px;word-spacing:0px"><flowRegion
         id="flowRegion3568"><rect
           id="rect3570"
           width="181.15604"
           height="60.086411"
           x="-34.078857"
           y="21.39094" /></flowRegion><flowPara
         id="flowPara3572"></flowPara></flowRoot>    <text
       xml:space="preserve"
       style="font-style:normal;font-weight:normal;font-size:40px;line-height:125%;font-family:sans-serif;letter-spacing:0px;word-spacing:0px;fill:#000000;fill-opacity:1;stroke:none;stroke-width:1px;stroke-linecap:butt;stroke-linejoin:miter;stroke-opacity:1"
       x="44.840603"
       y="55.469799"
       id="text3574"
       sodipodi:linespacing="125%"><tspan
         sodipodi:role="line"
         id="tspan3576"
         x="44.840603"
         y="55.469799"
         style="fill:#ffffff;font-weight:bold">Task 1</tspan></text>
    <flowRoot
       xml:space="preserve"
       id="flowRoot3578"
       style="fill:black;stroke:none;stroke-opacity:1;stroke-width:1px;stroke-linejoin:miter;stroke-linecap:butt;fill-opacity:1;font-family:sans-serif;font-style:normal;font-weight:normal;font-size:40px;line-height:125%;letter-spacing:0px;word-spacing:0px"><flowRegion
         id="flowRegion3580"><rect
           id="rect3582"
           width="170.3943"
           height="66.364098"
           x="125.55369"
           y="7.9387579" /></flowRegion><flowPara
         id="flowPara3584"></flowPara></flowRoot>    <text
       xml:space="preserve"
       style="font-style:normal;font-weight:normal;font-size:40px;line-height:125%;font-family:sans-serif;letter-spacing:0px;word-spacing:0px;fill:#000000;fill-opacity:1;stroke:none;stroke-width:1px;stroke-linecap:butt;stroke-linejoin:miter;stroke-opacity:1"
       x="426.54254"
       y="55.136101"
       id="text3574-2"
       sodipodi:linespacing="125%"><tspan
         sodipodi:role="line"
         id="tspan3576-2"
         x="426.54254"
         y="55.136101"
         style="font-weight:bold;fill:#ffffff">Task 2</tspan></text>
    <path
       inkscape:connector-curvature="0"
       style="fill:#ffffff;fill-rule:evenodd;stroke:#ffffff;stroke-width:8;stroke-linecap:butt"
       d="M 842.54427,206.78964 878.83889,193.5479 842.52397,180.36193 Z"
       id="path63-6-8" />
    <path
       d="M 889.0181,271.35273 153.07754,307.72278"
       id="path61-9"
       inkscape:connector-curvature="0"
       style="fill-rule:evenodd;stroke:#ffffff;stroke-width:9.11304569;stroke-linecap:butt;stroke-linejoin:round" />
    <path
       inkscape:connector-curvature="0"
       style="fill:#ffffff;fill-rule:evenodd;stroke:#ffffff;stroke-width:8;stroke-linecap:butt"
       d="m 144.75615,296.61102 -34.5141,17.36143 37.59905,8.88562 z"
       id="path79-9-7" />
    <path
       d="M 98.391005,330.93152 834.33158,367.30156"
       id="path61-3"
       inkscape:connector-curvature="0"
       style="fill-rule:evenodd;stroke:#ffffff;stroke-width:9.11304569;stroke-linecap:butt;stroke-linejoin:round" />
    <path
       d="m 902.48498,419.44916 0,0 c 37.02481,0 67.03937,30.01455 67.03937,67.03937 0,18.51242 -7.50366,35.27226 -19.63537,47.40397 -6.06586,6.06589 -13.28876,10.97473 -21.30927,14.3671 -2.00509,0.84811 -4.06006,1.60141 -6.15927,2.25433 l -0.36523,0.11112"
       id="path69-6"
       inkscape:connector-curvature="0"
       style="fill-rule:evenodd;stroke:#ffffff;stroke-width:8;stroke-linecap:butt;stroke-linejoin:round" />
    <path
       d="m 918.46795,551.52186 3.89975,-5.25812 -11.9013,6.44501 13.25967,2.71286 z"
       id="path71-1"
       inkscape:connector-curvature="0"
       style="fill:#ffffff;fill-rule:evenodd;stroke:#ffffff;stroke-width:8;stroke-linecap:butt" />
    <path
       inkscape:connector-curvature="0"
       style="fill:#ffffff;fill-rule:evenodd;stroke:#ffffff;stroke-width:8;stroke-linecap:butt"
       d="M 839.92518,383.77325 876.2198,370.53151 839.90488,357.34554 Z"
       id="path63-6-2" />
    <path
       d="M 888.76993,558.29508 152.82937,594.66513"
       id="path61-9-9"
       inkscape:connector-curvature="0"
       style="fill-rule:evenodd;stroke:#ffffff;stroke-width:9.11304569;stroke-linecap:butt;stroke-linejoin:round" />
    <path
       inkscape:connector-curvature="0"
       style="fill:#ffffff;fill-rule:evenodd;stroke:#ffffff;stroke-width:8;stroke-linecap:butt"
       d="m 140.92073,585.34699 -34.5141,17.36143 37.59905,8.88562 z"
       id="path79-9-7-3" />
    <path
       inkscape:connector-curvature="0"
       style="fill-rule:evenodd;stroke:#ffffff;stroke-width:7.78052187;stroke-linecap:butt;stroke-linejoin:round"
       d="m 492.76686,453.23918 349.83212,12.07348"
       id="path61-2-1" />
    <path
       inkscape:connector-curvature="0"
       style="fill:#ffffff;fill-rule:evenodd;stroke:#ffffff;stroke-width:8;stroke-linecap:butt"
       d="m 847.64259,480.31733 36.29462,-13.24174 -36.31492,-13.18597 z"
       id="path63-6-8-9" />
    <path
       d="m 900.0336,565.0565 0,0 c 37.02481,0 67.03937,30.01455 67.03937,67.03937 0,18.51242 -7.50366,35.27226 -19.63537,47.40397 -6.06586,6.06589 -13.28876,10.97473 -21.30927,14.3671 -2.00509,0.84811 -4.06006,1.60141 -6.15927,2.25433 l -0.36523,0.11112"
       id="path69-6-4"
       inkscape:connector-curvature="0"
       style="fill-rule:evenodd;stroke:#ffffff;stroke-width:8;stroke-linecap:butt;stroke-linejoin:round" />
    <path
       d="m 916.01657,697.1292 3.89975,-5.25812 -11.9013,6.44501 13.25967,2.71286 z"
       id="path71-1-7"
       inkscape:connector-curvature="0"
       style="fill:#ffffff;fill-rule:evenodd;stroke:#ffffff;stroke-width:8;stroke-linecap:butt" />
  </g>
</svg>
